<svg id="Layer_1" data-name="Layer 1" xmlns="http://www.w3.org/2000/svg" viewBox="0 0 700 700"><defs><style>.cls-1{fill:#9f894e;}.cls-2{fill:none;stroke:#9f894e;stroke-miterlimit:10;stroke-width:5px;}</style></defs><title>Artboard 1</title><path class="cls-1" d="M302,300.52v33.84h-.07v.07a16.53,16.53,0,1,1-33.05,0v-.07h10.08v.07a6.31,6.31,0,0,0,1.87,4.54,6.55,6.55,0,0,0,4.61,1.94A6.38,6.38,0,0,0,290,339a6.31,6.31,0,0,0,1.87-4.54v-.07H292v-24.7H281.38l.22-9.15Z"/><path class="cls-1" d="M363.68,351V320.1l-14.47,13.18L334.74,320.1V351H324.65V300.52h3.46l21.1,19.15,21-19.15h3.53V351Z"/><path class="cls-1" d="M431.15,310.6H407.6v9.29H427V330H407.6v10.94h23.33V351H397.52V300.52h33.63Z"/><path class="cls-1" d="M282,388.88a16.75,16.75,0,0,1-5.3-2.2,9.62,9.62,0,0,1-4.5-7.9,9.38,9.38,0,0,1,2.55-7.15,12.16,12.16,0,0,1,8.15-3.45c5.1,0,8,1.85,10.5,3.5l1.15.75-3.65,6-1.25-.8c-2.25-1.45-3.7-2.4-6.75-2.4a5.34,5.34,0,0,0-3.1,1.3,2.47,2.47,0,0,0-.6,2c.05,1.8,1.3,2.8,4.5,3.6.4.1.7.2,1,.3a18.54,18.54,0,0,1,7.75,4.65,10.13,10.13,0,0,1,2.75,6.85,10.9,10.9,0,0,1-10.85,10.55,20.75,20.75,0,0,1-6.15-.85,19.38,19.38,0,0,1-8.35-5.3l5.1-4.8a12.11,12.11,0,0,0,9.4,4,3.85,3.85,0,0,0,3.85-3.55c0-1.9-2.15-3.65-5.8-4.9l-.15,0Z"/><path class="cls-1" d="M332.81,401.88v1.85H298.16v-1.85l16.9-33.2h2.05Zm-10.2-5.15-6.7-14.3-7.3,14.3Z"/><path class="cls-1" d="M344.16,396.73h13.05v7H337.16v-35h7Z"/><path class="cls-1" d="M394,386.18A18.15,18.15,0,1,1,375.86,368,18.18,18.18,0,0,1,394,386.18Zm-29.1,0a11,11,0,1,0,11-11A10.95,10.95,0,0,0,364.91,386.18Zm6.3,0a4.65,4.65,0,1,0,4.65-4.65A4.49,4.49,0,0,0,371.21,386.18Z"/><path class="cls-1" d="M426.71,403.73,407,383.28v20.45h-7V368.68h2.2l19.35,19.6v-19.6h7v35.05Z"/><rect class="cls-2" x="238" y="262" width="224" height="181"/></svg>