<?xml version="1.0" encoding="utf-8"?>
<!-- Generator: Adobe Illustrator 21.0.2, SVG Export Plug-In . SVG Version: 6.00 Build 0)  -->
<svg version="1.1" id="Layer_1" xmlns="http://www.w3.org/2000/svg" xmlns:xlink="http://www.w3.org/1999/xlink" x="0px" y="0px"
	 viewBox="0 0 841.9 595.3" style="enable-background:new 0 0 841.9 595.3;" xml:space="preserve">
<style type="text/css">
	.st0{fill:#151515;}
	.st1{fill:#9F894E;}
</style>
<rect y="0" class="st0" width="841.9" height="595.3"/>
<path class="st1" d="M129.9,73.8l0.2,0.2l0.1,0l-0.3-0.4l0.1-0.1L151.6,0l-21.5,73.2l0.1,0L183,0h0.1l-52.7,73.1l0,0.1l-0.1,0.1
	l711.6,142.4L130.2,73.3l-0.1,0.1L841.9,216L130.2,73.4l0.3,0.5l-0.1,0.1l-0.3,0l0.3,0.9l-0.1,0.1l0.1,0.1l8.9,26.4l-0.1,0.2
	l231.4,493.6h-0.1L139.4,101.9l-3.3-1.8l-5-1.3l-0.4,0.3l-0.3,0.8l-0.1,0l0.6,0.5l0.1,0.1l1.9,5l708.8,139.9l-700.4-138l0.3,1.4
	l5.4,1.9c0,0,0.2-0.1,0.2-0.1l694.6,246.9L147.2,110.9l-0.1-0.2l-5.3-1.9l-0.1,0L841.9,452L141,108.6l0,0.1l700.9,422.9L141.1,108.8
	l0,0.1l-0.3,0.1l-0.4,0.4l-6.9-2.7l0.1,0.2l6.7,2.6l0.8,0.6l0.8,0l700,251.8L150,113.5l-0.3-0.2l-0.8-0.2l-1.7-0.9l-0.3-0.1l1.7,1
	l-0.1,0l-1.8-1.1l-5-1.8l-0.2,0l0.2,0.5l3.9,3.3l0,0.1l-3.7-3.1l-0.1,0l-0.2-0.2l-0.1-0.3l-0.5,0l0,0.1l2.2,1.8l0.5,1l0.2,0.2
	l0.9,0.3l697,328.9L144.8,114.2l-0.1-0.2l-0.3-0.1l-0.2,0l-0.3-0.1l-0.6,3.1l0.1,0.2l592.5,478.2L143.3,117.2l0,1.4l-1.1,0.5
	l6.5,6.1l0.8-0.9l0.3-0.7L269.2,0L148.7,125.3l0,0L594.6,0L148.8,125.5v0.1l0.1,0.1l0,0.2l0.4,0.8h0.1l0.4,0.4l692.1-13.9v0.6
	l-692.4,13.4l0.2,0.4h0.1l0.2,0.4l0,0.1l691.8,205L150.4,128.4l2.4,3.4l0,0.5l24.3,38.7l664.9,356.7v0.2L177.1,171.1L201.7,288
	l498.2,307.3l-483.3-298l-197.7,298l197.6-298.2l-14.8-9l64.8,307.1h-0.6l-62.8-299.6l-79.7,299.6L203,295.4L188.7,227L0,412.5
	l188.6-185.7l-11.1-52.9l-7.8,6.1l440.4,415.3L169.7,180.1L0,313.7l177.5-139.9L177,171l-24.3-38.7l0-0.5l-2.5-3.6l-0.1-0.1l0.3,0.5
	l0,0.3l131.3,466.5l-0.3-0.1L150.2,128.9l0-0.4l-1.4-2.9l-0.1,0l1,6.4l-0.1,0l-1-6.5l0-0.3l-0.1-0.1l-0.1,0.3l66.7,469.6L148.4,125
	l-6.1-5.8l-0.3,9.4l167.3,466.7L141.5,128.5l0.3-9.3l0.3-0.3l1.2-0.5l0-1.4l0.6-3.5l-0.1-0.2l-0.1,0l-0.4-1.1l-3.1-2.6l-0.1,0.1
	l157.7,485.5L139.7,109.4l-2-0.8l0.5,17.8l263.2,468.9L138.2,126.6L63.9,595.3l74.2-468.9l-0.5-17.9l-0.4-0.2l0,2l-1.8,1.7
	l-3.7,10.9l2.2,23.2l1.3,3.2L841.9,289L135.3,149.5l1.4,3.4l2.3,1.2l51.1-9L249.6,0l-59.5,145.4l0.3,0.1l6.3-1.1L76.9,0l119.8,144.3
	h0.8l0.5-0.3L5.9,0L198,143.7L327.3,0L198.2,143.8l0.3,0.2L841.9,30L198.8,144l-0.3,0.3l442.7,451l-443-450.9l-137,450.9
	l136.8-450.9l-7.2,1.3l-0.4,0.3l651.5,292.6L190.1,146l-61.2,449.3L190,145.7l-0.2-0.2L0,392l189.4-246.6l-0.4,0.1l-50.6,8.9
	l0.2,1.7l0.5,0.5L841.9,352L139,156.8l0.1,0.8l2.7,1.6l0.3,1.8l1,0.1L354.9,0L143.6,161l0.2,1.5l-2.6,18l1.8,2.8l698.9,100.2
	l-698.9-99.8l-16.6,411.5l15.8-396.6L0.1,370.8l142.1-172.3l0.6-15.1l-1.6-2.5l-0.7,4.5L56.7,595.3l83.1-409.5l0.4-0.6l3.4-22.8
	l-0.4-0.9L15,596.5L143,161.1l-0.8-0.1l-3.1,2.5l139.6,431.8l-139.3-430l0.1-0.2l-0.5-1.4l-1.7,0.2L0.1,316.3l137.3-152.5l1.4-0.2
	l3.3-2.6l-0.3-1.7l-2-1.2l-0.1,0.1l-0.7-0.4l-0.9,0l-0.3-1.1l-21.8-19l-29.9-26.3L0.1,128.1L86,111.2L0.1,35.9v-0.2l137.8,120.9
	l0.3,1h0.9l-0.1-0.8l0.1-0.1l-0.4-0.5l-0.2-1.8l0.3-0.3l-0.6-0.3l-0.7,0l-0.7-0.4l-1.2,5l-0.9,18.5l168.5,418.4L134.7,177.1
	l-3.2,17.6L204,595.3l-72.6-400.6L0.1,311l131.4-116.6l3.2-17.5l0.8-16.4L0.1,447.5l135.4-287.2l-0.7,0.4L0.1,359l134.5-198.3l0.2,0
	l0.7-0.4L0.1,74.7v-0.1l135.4,85.5l0.1-1.8l1.2-5.1l-2.6-6.5l-3.4,16.4l0,15.6l-1.8,5.3l0.2,3.7l265.4,407.6L128,186.9l0.5,6.7
	l89.1,46.8L842,371L218.3,240.6l81.7,43.2L842,462.4L300.5,284.1L842,570.5L226.3,245.2L600,595.3L225.5,244.9l-98.6-52l0,0.1
	l153,402.3L125.3,189.1l-0.6,1.4L218,595.3l-93-403.4l-0.4-0.2L0.1,244.2l124.7-52.8l-0.1-0.7L0.1,190.5l124.5-0.1l0.8-2L0.1,169.9
	l125.1,18.4l0.3-0.5L0.1,145.5l125.4,42.2l0.2-0.1l1.8,5.3l0.8,0.4l0.1-0.1l0.1-0.4l-0.5-6.2l-0.1-0.1L2.4,0L128,186.5l0.2,0
	l0.8,1.1l-0.2-3L0.1,188.8l128.4-4.3l0.2-0.3L0.1,113l128.7,70.9l0.6-1.9l-0.1-0.3l0.6-1L0.1,153l129.7,27.5l0.3-0.1l0.4-1.1
	L0.1,98.5v-0.1l130.2,80.7l0.2-0.4l0-15.4L0.1,213l130.3-50L0.1,85.4l130.5,77.5l3.1-15.1l-0.3-0.8l0.4-0.5l-2.1-23.3L0.1,250
	l131.5-126.7l3.9-11.3l1.8-1.7v-2l-3.6-1.4l-2.4-6.4l-0.6-0.5L0.1,235.8L130.4,100l0.3-0.8L0.1,147l130.7-47.8l0.4-0.3l-0.1-0.2
	L0.1,129l130.8-30.2l-0.1-0.1L0.1,103.5l131.5-5l0.2-0.2l-0.6-0.3l0-0.1l-131.1-8l131,8l0.2-0.2L0.1,80.1l131.6,17.6l0.1-0.1
	L0.1,74.2l130.9,23.2l0.1-0.1l-2.7-1.2l0-0.1l2.5,1.1l0-0.1l-0.5-0.3l-0.1-0.2l-7.8-3.5L0.1,174.9L122.5,93l-6.4-4.9L0.1,293
	L115.9,88L0.1,0l122.5,92.9l7,3.1l0.2-0.1l0.8,0.3L6.9,0l123.9,96.3l0.5-0.4L57.6,0l74,96.1l0.2,0L99,0l32.5,94.8L210.8,0
	l-79.4,94.9l0.4,1.3l0,0.1l0,0.1L299.2,0L131.9,96.4l-0.1,0.1L303.3,0L132,96.5l0,0.1L309.9,0h0.3L132.1,96.7L842,7.5L131.9,96.8
	l-0.1,0L842,212.7L132,96.9l-0.2,0.1l-0.2-0.1l-0.6,0l0,0.2l0.3,0.1l0.1,0.1l0.3,0l0,0.2l0.2,0l0.2,0L223.8,0l-91.1,97.3l-0.2,0.1
	l-0.3,0.5l0.1,0.1l0.7,0.2l0.1-0.3L724.9,0L133.1,98.1l0.1,0.1l708.7-81.8L133.1,98.3l-0.1,0.1l-0.8,0.1l-0.4-0.1l-0.2,0.2
	l710.2-63.2l-711,63.3l0.2,0.2l5.1,1.3l3.3,1.7L50,0h0.1l89.1,101.5l0.2-0.1l-2.5-7.3l-1.4-3.4l-1.1,1.1l0.1,0.2l-0.9,2.2l-0.1-0.2
	L0,74.7L133.4,94L0,60.1l133.4,33.9l0.2-0.2L15.1,0l118.7,93.8l0.8-1.7l-0.2-0.2v-0.1L71.9,0l62.5,91.8l1.1-1.1l0.2,0l-0.1-0.2
	L0,57.3l135.6,33.2l0-0.2l-3.5-10.4l-2-5.4l-2.3-2.3l0-0.1l2.3,2.3v-0.1L92.8,33.2L37.6,0l55.2,33.1L79.9,0l12.9,33.2l37.3,40.9
	l0.1,0.1l-0.1-0.2l-0.2-0.1L129.9,73.8C130,73.9,88.1,0,88.1,0C88.1,0,129.9,73.7,129.9,73.8l-10.3-44.2L107.1,2.3L0.1,179
	L107.7,1.2l-0.2,0L0.1,107.6L107.5,1.1l-0.1,0L0.1,64.9L106.9,1.3l0.2,0l0.3-0.2l0.4-1l-0.4,1h0.1l0.8-1h0.1l-0.6,1.2l-0.3,0.2
	L107.2,2l0.1,0.3c0,0-0.1,0.1-0.1,0.1l12.4,27.1l10.3-15.1c0,0-11.1-14.3-11.1-14.3L130,14.3L139.8,0l-18.1,26.5L254,0L121.7,26.5
	l-0.1,0.1l-0.1,0.1l-1.8,2.7L129.9,73.8L129.9,73.8z"/>
<path class="st1" d="M129.9,522.7l0.2-0.2l0.1,0L130,523l0.1,0.1l21.6,73.5l-21.5-73.2l0.1,0l52.8,73.2h0.1l-52.7-73.1l0-0.1
	l-0.1-0.1l711.6-142.4L130.2,523.2l-0.1-0.1l711.8-142.6L130.2,523.1l0.3-0.5l-0.1-0.1l-0.3,0l0.3-0.9l-0.1-0.1l0.1-0.1l8.9-26.4
	l-0.1-0.2L370.9,1.2h-0.1L139.4,494.6l-3.3,1.8l-5,1.3l-0.4-0.3l-0.3-0.8l-0.1,0l0.6-0.5l0.1-0.1l1.9-5l708.8-139.9l-700.4,138
	l0.3-1.4l5.4-1.9c0,0,0.2,0.1,0.2,0.1l694.6-246.9L147.2,485.7l-0.1,0.2l-5.3,1.9l-0.1,0l700.2-343.2L141,488l0-0.1L841.9,65
	L141.1,487.7l0-0.1l-0.3-0.1l-0.4-0.4l-6.9,2.7l0.1-0.2l6.7-2.6l0.8-0.6l0.8,0l700-251.8L150,483l-0.3,0.2l-0.8,0.2l-1.7,0.9
	l-0.3,0.1l1.7-1l-0.1,0l-1.8,1.1l-5,1.8l-0.2,0l0.2-0.5l3.9-3.3l0-0.1l-3.7,3.1l-0.1,0l-0.2,0.2l-0.1,0.3l-0.5,0l0-0.1l2.2-1.8
	l0.5-1l0.2-0.2l0.9-0.3l697-328.9L144.8,482.4l-0.1,0.2l-0.3,0.1l-0.2,0l-0.3,0.1l-0.6-3.1l0.1-0.2L735.9,1.2L143.3,479.4l0-1.4
	l-1.1-0.5l6.5-6.1l0.8,0.9l0.3,0.7l119.5,123.5L148.7,471.3l0,0l445.9,125.3L148.8,471.1V471l0.1-0.1c0,0,0-0.2,0-0.2l0.4-0.8h0.1
	l0.4-0.4l692.1,13.9v-0.6l-692.4-13.4l0.2-0.4h0.1l0.2-0.4l0-0.1l691.8-205L150.4,468.1l2.4-3.4l0-0.5l24.3-38.7L841.9,68.8v-0.2
	L177.1,425.4l24.6-116.9L699.9,1.2l-483.3,298L18.9,1.2l197.6,298.2l-14.8,9L266.5,1.2h-0.6l-62.8,299.6L123.4,1.2L203,301.1
	l-14.3,68.4L0,184l188.6,185.7l-11.1,52.9l-7.8-6.1L610.2,1.2L169.7,416.4L0,282.8l177.5,139.9l-0.6,2.8l-24.3,38.7l0,0.5l-2.5,3.6
	l-0.1,0.1l0.3-0.5l0-0.3L281.6,1.2l-0.3,0.1L150.2,467.6l0,0.4l-1.4,2.9l-0.1,0l1-6.4l-0.1,0l-1,6.5l0,0.3l-0.1,0.1l-0.1-0.3
	L215.2,1.2l-66.9,470.3l-6.1,5.8l-0.3-9.4L309.2,1.2L141.5,468l0.3,9.3l0.3,0.3l1.2,0.5l0,1.4l0.6,3.5l-0.1,0.2l-0.1,0l-0.4,1.1
	l-3.1,2.6l-0.1-0.1L297.7,1.2L139.7,487.1l-2,0.8l0.5-17.8L401.4,1.2L138.2,470L63.9,1.2l74.2,468.9l-0.5,17.9l-0.4,0.2l0-2
	l-1.8-1.7l-3.7-10.9l2.2-23.2l1.3-3.2l706.7-139.6L135.2,447l1.4-3.4l2.3-1.2l51.1,9l59.6,145.1l-59.5-145.4l0.3-0.1l6.3,1.1
	L76.9,596.5l119.8-144.3h0.8l0.5,0.3L5.9,596.5L198,452.9l129.3,143.6L198.2,452.7l0.3-0.2l643.4,113.9l-643.1-114l-0.3-0.3
	l442.7-451l-443,450.9L61.3,1.2L198,452.2l-7.2-1.3l-0.4-0.3L841.9,158L190.1,450.5L128.9,1.2L190,450.8l-0.2,0.2L0,204.5
	l189.4,246.6l-0.4-0.1l-50.6-8.9l0.2-1.7l0.5-0.5l702.8-195.4L139,439.7l0.1-0.8l2.7-1.6l0.3-1.8l1-0.1l211.7,161.1l-211.3-161
	l0.2-1.5l-2.6-18l1.8-2.8L841.9,313l-698.9,99.8L126.4,1.3l15.8,396.6L0,225.8l142.1,172.3l0.6,15.1l-1.6,2.5l-0.7-4.5L56.7,1.2
	l83.1,409.5l0.4,0.6l3.4,22.8l-0.4,0.9L14.9,0L143,435.4l-0.8,0.1l-3.1-2.5L278.7,1.3l-139.3,430l0.1,0.2l-0.5,1.4l-1.7-0.2L0,280.3
	l137.3,152.5l1.4,0.2l3.3,2.6c0,0-0.3,1.7-0.3,1.7l-2,1.2l-0.1-0.1l-0.7,0.4l-0.9,0l-0.3,1.1L116,459l-29.9,26.3L0,468.4L86,485.4
	L0,560.7v0.2L137.9,440l0.3-1h0.9l-0.1,0.8l0.1,0.1l-0.4,0.5l-0.2,1.8l0.3,0.3l-0.6,0.3l-0.7,0l-0.7,0.4l-1.2-5l-0.9-18.5L303.2,1.2
	L134.7,419.4l-3.2-17.6L203.9,1.3l-72.6,400.6L0.1,285.5l131.4,116.6l3.2,17.5l0.8,16.4L0.1,149l135.4,287.2l-0.7-0.4L0.1,237.5
	l134.5,198.3l0.2,0l0.7,0.4L0.1,521.8v0.1l135.4-85.5l0.1,1.8l1.2,5.1l-2.6,6.5l-3.4-16.4l0-15.6l-1.8-5.3l0.2-3.7L394.4,1.3
	L128,409.6l0.5-6.7l89.1-46.8l624.3-130.7L218.3,355.9l81.7-43.2l541.9-178.5L300.4,312.4L841.9,26L226.3,351.3L599.9,1.2
	L225.5,351.7l-98.6,52l0-0.1l153-402.3L125.3,407.5l-0.6-1.4L217.9,1.2l-93,403.4l-0.4,0.2L0.1,352.4l124.7,52.8l-0.1,0.7L0.1,406
	l124.5,0.1l0.8,2L0.1,426.7l125.1-18.4l0.3,0.5L0.1,451l125.4-42.2l0.2,0.1l1.8-5.3l0.8-0.4l0.1,0.1l0.1,0.4l-0.5,6.2l-0.1,0.1
	L2.4,596.5L128,410.1l0.2,0l0.8-1.1l-0.2,3L0.1,407.8l128.4,4.3l0.2,0.3L0.1,483.5l128.7-70.9l0.6,1.9l-0.1,0.3l0.6,1L0.1,443.5
	L129.7,416l0.3,0.1l0.4,1.1L0.1,498v0.1l130.2-80.7l0.2,0.4l0,15.4L0.1,383.5l130.3,50L0.1,511.2l130.5-77.5l3.1,15.1l-0.3,0.8
	l0.4,0.5l-2.1,23.3L0.1,346.5l131.5,126.7l3.9,11.3l1.8,1.7v2l-3.6,1.4l-2.4,6.4l-0.6,0.5L0.1,360.8l130.4,135.7l0.3,0.8L0.1,449.5
	l130.7,47.8l0.4,0.3l-0.1,0.2L0.1,467.5l130.8,30.2l-0.1,0.1L0.1,493l131.5,5l0.2,0.2l-0.6,0.3l0,0.1l-131.1,8l131-8l0.2,0.2
	L0.1,516.4l131.6-17.6l0.1,0.1L0.1,522.3l130.9-23.2l0.1,0.1l-2.7,1.2l0,0.1l2.5-1.1l0,0.1l-0.5,0.3l-0.1,0.2l-7.8,3.5L0.1,421.6
	l122.4,81.9l-6.4,4.9L0.1,303.5l115.8,205l-115.8,88l122.5-92.9l7-3.1l0.2,0.1l0.8-0.3L6.9,596.5l123.9-96.3l0.5,0.4l-73.7,95.9
	l74-96.1l0.2,0l-32.9,96.1l32.5-94.8l79.4,94.8l-79.4-94.9l0.4-1.3l0-0.1l0-0.1l167.3,96.4l-167.3-96.4l-0.1-0.1l171.5,96.6
	L132,499.9l0-0.1l177.9,96.6h0.3l-178.1-96.7L841.9,589l-710.1-89.3l-0.1,0L842,383.8L132,499.6l-0.2-0.1l-0.2,0.1l-0.6,0l0-0.2
	l0.3-0.1l0.1-0.1l0.3,0l0-0.2l0.2,0l0.2,0l91.7,97.5l-91.1-97.3l-0.2-0.1l-0.3-0.5l0.1-0.1l0.7-0.2l0.1,0.3l591.9,97.9l-591.8-98.1
	l0.1-0.1l708.7,81.8l-708.8-81.9l-0.1-0.1l-0.8-0.1l-0.4,0.1l-0.2-0.2l710.2,63.2l-711-63.3l0.2-0.2l5.1-1.3l3.3-1.7L50,596.5h0.1
	l89.1-101.5l0.2,0.1l-2.5,7.3l-1.4,3.4l-1.1-1.1l0.1-0.2l-0.9-2.2l-0.1,0.2L0,521.8l133.3-19.3L0,536.4l133.4-33.9l0.2,0.2
	L15.1,596.5l118.7-93.8l0.8,1.7l-0.2,0.2v0.1l-62.4,91.8l62.5-91.8l1.1,1.1l0.2,0l-0.1,0.2L0,539.2l135.6-33.2l0,0.2l-3.5,10.4
	l-2,5.4l-2.3,2.3l0,0.1l2.3-2.3v0.1l-37.4,40.9l-55.2,33.2l55.2-33.1l-12.8,33.2l12.9-33.2l37.3-40.9l0.1-0.1l-0.1,0.2l-0.2,0.1H130
	c0,0-41.9,73.9-41.9,73.9C88.1,596.5,129.9,522.7,129.9,522.7l-10.3,44.2l-12.5,27.3L0.1,417.5l107.6,177.8l-0.2,0L0.1,488.9
	l107.5,106.5l-0.1,0L0.1,531.5l106.9,63.7l0.2,0l0.3,0.2l0.5,1l-0.4-1h0.1l0.8,1h0.1l-0.6-1.2l-0.3-0.2l-0.4-0.6l0.1-0.3l-0.1-0.1
	l12.4-27.1l10.3,15.1l-11.1,14.3l11.1-14.3l9.8,14.3L121.7,570l132.3,26.5L121.7,570l-0.1-0.1l-0.1-0.1l-1.8-2.7L129.9,522.7
	L129.9,522.7z"/>
<path class="st1" d="M712,522.7l-0.2-0.2l-0.1,0l0.3,0.4l-0.1,0.1l-21.6,73.5l21.5-73.2l-0.1,0l-52.8,73.2h-0.1l52.7-73.1l0-0.1
	l0.1-0.1L0,380.8l711.7,142.4l0.1-0.1L0,380.5l711.7,142.6l-0.3-0.5l0.1-0.1l0.3,0l-0.3-0.9l0.1-0.1l-0.1-0.1l-8.9-26.4l0.1-0.2
	L471,1.2h0.1l231.4,493.4l3.3,1.8l5,1.3l0.4-0.3l0.3-0.8l0.1,0l-0.6-0.5l-0.1-0.1l-1.9-5L0,351.2l700.4,138l-0.3-1.4l-5.4-1.9
	c0,0-0.2,0.1-0.2,0.1L0,239.2l694.7,246.5l0.1,0.2l5.3,1.9l0.1,0L0,144.5l700.9,343.4l0-0.1L0,65l700.8,422.7l0-0.1l0.3-0.1l0.4-0.4
	l6.9,2.7l-0.1-0.2l-6.7-2.6l-0.8-0.6l-0.8,0L0,234.5L691.9,483l0.3,0.2l0.8,0.2l1.7,0.9l0.3,0.1l-1.7-1l0.1,0l1.8,1.1l5,1.8l0.2,0
	l-0.2-0.5l-3.9-3.3l0-0.1l3.7,3.1l0.1,0l0.2,0.2l0.1,0.3l0.5,0l0-0.1l-2.2-1.8l-0.5-1l-0.2-0.2l-0.9-0.3L0,153.8l697.1,328.5
	l0.1,0.2l0.3,0.1l0.2,0l0.3,0.1l0.6-3.1l-0.1-0.2L106,1.2l592.7,478.1l0-1.4l1.1-0.5l-6.5-6.1l-0.8,0.9l-0.3,0.7L572.7,596.5
	l120.6-125.2l0,0L247.3,596.5L693.1,471v-0.1l-0.1-0.1c0,0,0-0.2,0-0.2l-0.4-0.8h-0.1l-0.4-0.4L0,483.4v-0.6l692.4-13.4l-0.2-0.4
	H692l-0.2-0.4l0-0.1L0,263.5l691.5,204.6l-2.4-3.4l0-0.5l-24.3-38.7L0,68.8v-0.2l664.8,356.8l-24.7-116.9L142,1.2l483.3,298L823,1.2
	L625.4,299.4l14.8,9L575.4,1.2h0.6l62.8,299.6L718.5,1.2l-79.6,299.9l14.3,68.4L841.9,184L653.2,369.7l11.1,52.9l7.8-6.1L231.7,1.2
	l440.4,415.2l169.7-133.6L664.4,422.7l0.6,2.8l24.3,38.7l0,0.5l2.5,3.6l0.1,0.1l-0.3-0.5l0-0.3L560.3,1.1l0.3,0.1l131.2,466.4l0,0.4
	l1.4,2.9l0.1,0l-1-6.4l0.1,0l1,6.5l0,0.3l0.1,0.1l0.1-0.3L626.7,1.2l66.9,470.3l6.1,5.8l0.3-9.4L532.6,1.2L700.4,468l-0.3,9.3
	l-0.3,0.3l-1.2,0.5l0,1.4l-0.6,3.5l0.1,0.2l0.1,0l0.4,1.1l3.1,2.6l0.1-0.1L544.3,1.2l157.9,485.9l2,0.8l-0.5-17.8L440.5,1.2
	L703.7,470L778,1.2l-74.2,468.9l0.5,17.9l0.4,0.2l0-2l1.8-1.7l3.7-10.9l-2.2-23.3l-1.3-3.2L0,307.5L706.7,447l-1.4-3.4l-2.3-1.2
	l-51.1,9l-59.6,145.1l59.5-145.4l-0.3-0.1l-6.3,1.1L765,596.5L645.2,452.2h-0.8l-0.5,0.3l192.1,144L643.9,452.9L514.7,596.5
	l129.1-143.8l-0.3-0.2L0,566.5l643.1-114l0.3-0.3L200.7,1.2l443,450.9l137-450.9l-136.8,451l7.2-1.3l0.4-0.3L0,158l651.8,292.5
	L713,1.2l-61.1,449.6l0.2,0.2l189.8-246.5L652.5,451.1l0.4-0.1l50.6-8.9l-0.2-1.7l-0.5-0.5L0,244.5l702.9,195.2l-0.1-0.8l-2.7-1.6
	l-0.3-1.8l-1-0.1L487,596.5l211.3-161l-0.2-1.5l2.6-18l-1.8-2.8L0,313l698.9,99.8L715.5,1.3l-15.8,396.6l142.1-172.1L699.8,398.1
	l-0.6,15.1l1.6,2.5l0.7-4.5L785.2,1.3l-83.1,409.5l-0.4,0.6l-3.4,22.8l0.4,0.9L827,0L698.9,435.4l0.8,0.1l3.1-2.5L563.2,1.3
	l139.3,430l-0.1,0.2l0.5,1.4l1.7-0.2l137.3-152.4L704.6,432.8l-1.4,0.2l-3.3,2.6c0,0,0.3,1.7,0.3,1.7l2,1.2l0.1-0.1l0.7,0.4l0.9,0
	l0.3,1.1l21.8,19l29.9,26.3l86.1-16.8L756,485.4l85.9,75.3v0.2L704.1,440l-0.3-1h-0.9l0.1,0.8l-0.1,0.1l0.4,0.5l0.2,1.8l-0.3,0.3
	l0.6,0.3l0.7,0l0.7,0.4l1.2-5l0.9-18.5L538.7,1.3l168.5,418.2l3.2-17.6L638,1.3l72.6,400.6l131.3-116.3L710.5,402.1l-3.2,17.5
	l-0.8,16.4l135.4-287L706.5,436.2l0.7-0.4l134.7-198.3L707.3,435.9l-0.2,0l-0.7,0.4l135.4,85.5v0.1l-135.4-85.5l-0.1,1.8l-1.2,5.1
	l2.6,6.5l3.4-16.4l0-15.6l1.8-5.3l-0.2-3.7L447.5,1.3l266.4,408.4l-0.5-6.7l-89.1-46.8L0,225.5L623.6,356l-81.7-43.2L0,134.2
	l541.5,178.3L0,26l615.7,325.3L242,1.3l374.4,350.4l98.6,52l0-0.1L562,1.3l154.7,406.2l0.6-1.4L624,1.3l93,403.4l0.4,0.2l124.5-52.5
	l-124.7,52.8l0.1,0.7l124.5,0.1l-124.5,0.1l-0.8,2l125.3,18.5l-125.1-18.4l-0.3,0.5L841.9,451l-125.4-42.2l-0.2,0.1l-1.8-5.3
	l-0.8-0.4l-0.1,0.1l-0.1,0.4l0.5,6.2l0.1,0.1l125.5,186.6L714,410.1l-0.2,0L713,409l0.2,3l128.7-4.2l-128.4,4.3l-0.2,0.3l128.7,71.1
	l-128.7-70.9l-0.6,1.9l0.1,0.3l-0.6,1l129.8,27.7L712.2,416l-0.3,0.1l-0.4,1.1L841.9,498v0.1l-130.2-80.7l-0.2,0.4l0,15.4
	l130.4-49.8l-130.3,50l130.3,77.7l-130.5-77.5l-3.1,15.1l0.3,0.8l-0.4,0.5l2.1,23.3l131.7-126.8L710.4,473.2l-3.9,11.3l-1.8,1.7v2
	l3.6,1.4l2.4,6.4l0.6,0.5l130.4-135.7L711.5,496.5l-0.3,0.8l130.7-47.8l-130.7,47.8l-0.4,0.3l0.1,0.2l130.9-30.2l-130.8,30.2
	l0.1,0.1l130.8-4.9l-131.5,5l-0.2,0.2l0.6,0.3l0,0.1l131.1,8l-131-8l-0.2,0.2l131.2,17.6l-131.6-17.6l-0.1,0.1l131.7,23.4L711,499.1
	l-0.1,0.1l2.7,1.2l0,0.1l-2.5-1.1l0,0.1l0.5,0.3l0.1,0.2l7.8,3.5l122.5-81.9l-122.4,81.9l6.4,4.9l116-204.9L726,508.5l115.8,88
	l-122.5-92.9l-7-3.1l-0.2,0.1l-0.8-0.3l123.7,96.3l-123.9-96.3l-0.5,0.4l73.7,95.9l-74-96.1l-0.2,0l32.9,96.1l-32.5-94.8l-79.4,94.8
	l79.4-94.9l-0.4-1.3l0-0.1l0-0.1l-167.3,96.4L710,500.1l0.1-0.1l-171.5,96.6L710,500l0-0.1l-177.9,96.6h-0.3l178.1-96.7L0,589
	l710.1-89.3l0.1,0L0,383.8l709.9,115.7l0.2-0.1l0.2,0.1l0.6,0l0-0.2l-0.3-0.1l-0.1-0.1l-0.3,0l0-0.2l-0.2,0l-0.2,0l-91.7,97.5
	l91.1-97.3l0.2-0.1l0.3-0.5l-0.1-0.1l-0.7-0.2l-0.1,0.3L117,596.5l591.8-98.1l-0.1-0.1L0,580.1l708.8-81.9l0.1-0.1l0.8-0.1l0.4,0.1
	l0.2-0.2L0,561.2l711-63.3l-0.2-0.2l-5.1-1.3l-3.3-1.7l89.4,101.9h-0.1L702.7,495l-0.2,0.1l2.5,7.3l1.4,3.4l1.1-1.1l-0.1-0.2
	l0.9-2.2l0.1,0.2l133.5,19.4l-133.3-19.3l133.3,34l-133.4-33.9l-0.2,0.2l118.6,93.8l-118.7-93.8l-0.8,1.7l0.2,0.2v0.1l62.4,91.8
	l-62.5-91.8l-1.1,1.1l-0.2,0l0.1,0.2l135.6,33.2l-135.6-33.2l0,0.2l3.5,10.4l2,5.4l2.3,2.3l0,0.1l-2.3-2.3v0.1l37.4,40.9l55.2,33.2
	l-55.2-33.1l12.8,33.1l-12.9-33.2l-37.3-40.9l-0.1-0.1l0.1,0.2L712,522.7L712,522.7c0-0.1,41.9,73.8,41.9,73.8
	C753.8,596.5,712,522.8,712,522.7l10.3,44.2l12.5,27.3l107.1-176.8L734.3,595.3l0.2,0L841.9,489L734.4,595.4l0.1,0l107.4-63.8
	L735,595.2l-0.2,0l-0.3,0.2l-0.5,1l0.4-1h-0.1l-0.8,1h-0.1l0.6-1.2l0.3-0.2l0.4-0.6l-0.1-0.3l0.1-0.1L722.3,567L712,582.1l11.1,14.3
	L712,582.2l-9.8,14.3l18.1-26.5L588,596.5L720.2,570l0.1-0.1l0.1-0.1l1.8-2.7L712,522.7L712,522.7z"/>
<path class="st1" d="M712,73.8l-0.2,0.2l-0.1,0l0.3-0.4l-0.1-0.1L690.2,0l21.5,73.2l-0.1,0L658.9,0h-0.1l52.7,73.1l0,0.1l0.1,0.1
	L0,215.7L711.7,73.3l0.1,0.1L0,216L711.6,73.4l-0.3,0.5l0.1,0.1l0.3,0l-0.3,0.9l0.1,0.1l-0.1,0.1l-8.9,26.4l0.1,0.2L471,595.3h0.1
	l231.4-493.4l3.3-1.8l5-1.3l0.4,0.3l0.3,0.8l0.1,0l-0.6,0.5l-0.1,0.1l-1.9,5L0,245.3l700.4-138.1l-0.3,1.4l-5.4,1.9
	c0,0-0.2-0.1-0.2-0.1L0,357.3l694.7-246.5l0.1-0.2l5.3-1.9l0.1,0L0,452l700.9-343.4l0,0.1L0,531.5l700.8-422.7l0,0.1l0.3,0.1
	l0.4,0.4l6.9-2.7l-0.1,0.2l-6.7,2.6l-0.8,0.6l-0.8,0L0,362l691.9-248.5l0.3-0.2l0.8-0.2l1.7-0.9l0.3-0.1l-1.7,1l0.1,0l1.8-1.1l5-1.8
	l0.2,0l-0.2,0.5l-3.9,3.3l0,0.1l3.7-3.1l0.1,0l0.2-0.2l0.1-0.3l0.5,0l0,0.1l-2.2,1.8l-0.5,1l-0.2,0.2l-0.9,0.3L0,442.7l697.1-328.5
	l0.1-0.2l0.3-0.1l0.2,0l0.3-0.1l0.6,3.1l-0.1,0.2L106,595.3l592.7-478.1l0,1.4l1.1,0.5l-6.5,6.1l-0.8-0.9l-0.3-0.7L572.7,0
	l120.6,125.2l0,0L247.3,0l445.8,125.4v0.1l-0.1,0.1l0,0.2l-0.4,0.8h-0.1l-0.4,0.4L0,113.1v0.6l692.4,13.4l-0.2,0.4H692l-0.2,0.4
	l0,0.1L0,333.1l691.5-204.6l-2.4,3.4l0,0.5L664.8,171L0,527.7v0.2l664.8-356.8L640.2,288L142,595.3l483.3-298l197.7,298L625.4,297.2
	l14.8-9l-64.8,307.1h0.6l62.8-299.6l79.7,299.6l-79.6-299.9l14.3-68.4l188.7,185.5L653.2,226.8l11.1-52.9l7.8,6.1L231.7,595.3
	l440.4-415.2l169.7,133.6L664.4,173.9l0.6-2.8l24.3-38.7l0-0.5l2.5-3.6l0.1-0.1l-0.3,0.5l0,0.3L560.3,595.4l0.3-0.1l131.2-466.4
	l0-0.4l1.4-2.9l0.1,0l-1,6.4l0.1,0l1-6.5l0-0.3l0.1-0.1l0.1,0.3l-66.7,469.6L693.6,125l6.1-5.8l0.3,9.4L532.7,595.3l167.8-466.8
	l-0.3-9.3l-0.3-0.3l-1.2-0.5l0-1.4l-0.6-3.5l0.1-0.2l0.1,0l0.4-1.1l3.1-2.6l0.1,0.1L544.3,595.3l157.9-485.9l2-0.8l-0.5,17.8
	L440.5,595.3l263.2-468.8L778,595.3l-74.2-468.9l0.5-17.9l0.4-0.2l0,2l1.8,1.7l3.7,10.9l-2.2,23.2l-1.3,3.2L0,289l706.7-139.5
	l-1.4,3.4l-2.3,1.2l-51.1-9L592.3,0l59.5,145.4l-0.3,0.1l-6.3-1.1L765,0L645.2,144.3h-0.8l-0.5-0.3L836,0L643.9,143.7L514.7,0
	l129.1,143.8l-0.3,0.2L0,30l643.1,114l0.3,0.3l-442.7,451l443-450.9l137,450.9l-136.8-451l7.2,1.3l0.4,0.3L0,438.5L651.8,146
	L713,595.3l-61.1-449.6l0.2-0.2L841.9,392L652.5,145.4l0.4,0.1l50.6,8.9l-0.2,1.7l-0.5,0.5L0,352l702.9-195.2l-0.1,0.8l-2.7,1.6
	l-0.3,1.8l-1,0.1L487,0l211.3,161l-0.2,1.5l2.6,18l-1.8,2.8L0,283.5l698.9-99.8l16.6,411.5l-15.8-396.6l142.1,172.1L699.8,198.4
	l-0.6-15.1l1.6-2.5l0.7,4.5l83.8,409.9l-83.1-409.5l-0.4-0.6l-3.4-22.8l0.4-0.9l128.3,435L698.9,161.1l0.8-0.1l3.1,2.5L563.3,595.3
	l139.3-430l-0.1-0.2l0.5-1.4l1.7,0.2l137.3,152.4L704.6,163.7l-1.4-0.2l-3.3-2.6l0.3-1.7l2-1.2l0.1,0.1l0.7-0.4l0.9,0l0.3-1.1
	l21.8-19l29.9-26.3l86.1,16.8L756,111.1l85.9-75.3v-0.2L704.1,156.5l-0.3,1h-0.9l0.1-0.8l-0.1-0.1l0.4-0.5l0.2-1.8l-0.3-0.3l0.6-0.3
	l0.7,0l0.7-0.4l1.2,5l0.9,18.5L538.7,595.3l168.5-418.2l3.2,17.6L638,595.3l72.6-400.6L841.9,311L710.5,194.4l-3.2-17.5l-0.8-16.4
	l135.4,287L706.5,160.3l0.7,0.4L841.9,359L707.4,160.6l-0.2,0l-0.7-0.4l135.4-85.5v-0.1l-135.4,85.5l-0.1-1.8l-1.2-5.1l2.6-6.5
	l3.4,16.4l0,15.6l1.8,5.3l-0.2,3.7L447.5,595.3l266.4-408.4l-0.5,6.7l-89.1,46.8L0,371l623.6-130.4l-81.7,43.2L0,462.3l541.5-178.3
	L0,570.5l615.7-325.3L242,595.3l374.4-350.4l98.6-52l0,0.1L562,595.3l154.7-406.2l0.6,1.4L624,595.3l93-403.4l0.4-0.2l124.5,52.5
	l-124.7-52.8l0.1-0.7l124.6-0.1l-124.5-0.1l-0.8-2l125.3-18.5l-125.1,18.4l-0.3-0.5l125.3-42.3l-125.4,42.2l-0.2-0.1l-1.8,5.3
	l-0.8,0.4l-0.1-0.1l-0.1-0.4l0.5-6.2l0.1-0.1L839.6,0L714,186.5l-0.2,0l-0.8,1.1l0.2-3l128.7,4.2l-128.4-4.3l-0.2-0.3L841.9,113
	l-128.7,70.9l-0.6-1.9l0.1-0.3l-0.6-1L841.9,153l-129.7,27.5l-0.3-0.1l-0.4-1.1l130.3-80.8v-0.1l-130.2,80.7l-0.2-0.4l0-15.4
	L841.9,213l-130.3-50l130.3-77.7l-130.5,77.5l-3.1-15.1l0.3-0.8l-0.4-0.5l2.1-23.3L841.9,250L710.4,123.3l-3.9-11.3l-1.8-1.7v-2
	l3.6-1.4l2.4-6.4l0.6-0.5l130.4,135.7L711.5,100l-0.3-0.8L841.9,147L711.2,99.2l-0.4-0.3l0.1-0.2l130.9,30.2L711.1,98.7l0.1-0.1
	l130.7,4.9l-131.5-5l-0.2-0.2l0.6-0.3l0-0.1l131.1-8l-131,8l-0.2-0.2l131.2-17.6L710.3,97.7l-0.1-0.1l131.7-23.4L711,97.4l-0.1-0.1
	l2.7-1.2l0-0.1l-2.5,1.1l0-0.1l0.5-0.3l0.1-0.2l7.8-3.5l122.5,81.9L719.5,92.9l6.4-4.9l116,204.9L726,88L841.9,0L719.4,92.9l-7,3.1
	l-0.2-0.1l-0.8,0.3L835.1,0L711.1,96.3l-0.5-0.4L784.4,0l-74,96.1l-0.2,0L743,0l-32.5,94.8L631.1,0l79.4,94.9l-0.4,1.3l0,0.1l0,0.1
	L542.7,0L710,96.4l0.1,0.1L538.6,0L710,96.5l0,0.1L532.1,0h-0.3l178.1,96.7L0,7.5l710.1,89.3l0.1,0L0,212.7L709.9,96.9l0.2,0.1
	l0.2-0.1l0.6,0l0,0.2l-0.3,0.1l-0.1,0.1l-0.3,0l0,0.2l-0.2,0l-0.2,0L618.1,0l91.1,97.3l0.2,0.1l0.3,0.5l-0.1,0.1l-0.7,0.2l-0.1-0.3
	L117,0l591.8,98.1l-0.1,0.1L0,16.4l708.8,81.8l0.1,0.1l0.8,0.1l0.4-0.1l0.2,0.2L0,35.3l711,63.3l-0.2,0.2l-5.1,1.3l-3.3,1.7L791.9,0
	h-0.1l-89.1,101.5l-0.2-0.1l2.5-7.3l1.4-3.4l1.1,1.1l-0.1,0.2l0.9,2.2l0.1-0.2l133.5-19.4L708.6,94l133.3-34L708.5,93.9l-0.2-0.2
	L826.8,0L708.2,93.8l-0.8-1.7l0.2-0.2v-0.1L770,0l-62.5,91.8l-1.1-1.1l-0.2,0l0.1-0.2l135.6-33.2L706.3,90.4l0-0.2l3.5-10.4l2-5.4
	l2.3-2.3l0-0.1l-2.3,2.3v-0.1l37.4-40.9L804.4,0l-55.2,33.1L762,0l-12.9,33.2l-37.3,40.9l-0.1,0.1l0-0.2L712,73.8L712,73.8
	C712,73.9,753.8,0,753.8,0C753.8,0,712,73.7,712,73.8l10.3-44.3l12.5-27.3L841.9,179L734.3,1.2l0.2,0l107.4,106.3L734.4,1.1l0.1,0
	l107.4,63.8L735,1.2l-0.2,0L734.5,1L734,0l0.4,1h-0.1l-0.8-1h-0.1l0.6,1.2l0.3,0.2l0.4,0.6l-0.1,0.3c0,0,0.1,0.1,0.1,0.1l-12.4,27.1
	L712,14.3c0,0,11.1-14.3,11.1-14.3l-11.1,14.3L702.1,0l18.1,26.5L588,0l132.2,26.5l0.1,0.1l0.1,0.1l1.8,2.7L712,73.8L712,73.8z"/>
</svg>
