<svg id="Layer_1" data-name="Layer 1" xmlns="http://www.w3.org/2000/svg" viewBox="0 0 690 171"><defs><style>.cls-1{fill:#9f894e;}.cls-2{fill:none;stroke:#9f894e;stroke-miterlimit:10;stroke-width:5px;}</style></defs><title>Artboard 1</title><path class="cls-1" d="M93,49v46.2h-.1v.1a22.56,22.56,0,1,1-45.12,0v-.1H61.52v.1a8.62,8.62,0,0,0,2.56,6.19,8.94,8.94,0,0,0,6.29,2.65,8.71,8.71,0,0,0,6.19-2.65,8.62,8.62,0,0,0,2.56-6.19v-.1h.3V61.47H64.86L65.16,49Z"/><path class="cls-1" d="M177.22,117.9V75.73l-19.76,18-19.76-18V117.9H123.94V49h4.72l28.8,26.15L186.17,49H191V117.9Z"/><path class="cls-1" d="M269.33,62.75H237.18V75.43h26.54V89.19H237.18v14.94H269V117.9H223.42V49h45.91Z"/><path class="cls-1" d="M353.18,88.7a33,33,0,0,1-10.42-4.33,18.91,18.91,0,0,1-8.85-15.53,18.44,18.44,0,0,1,5-14.06c5.11-5.31,12.49-6.78,16-6.78,10,0,15.63,3.64,20.64,6.88l2.26,1.47-7.18,11.7-2.46-1.57c-4.42-2.85-7.28-4.72-13.27-4.72-.88,0-4.33.69-6.1,2.56-.59.59-1.28,1.67-1.18,3.93.1,3.54,2.56,5.5,8.85,7.08.79.2,1.38.39,2,.59,6.59,2.26,11.7,5.31,15.24,9.14a19.91,19.91,0,0,1,5.41,13.47,21.43,21.43,0,0,1-21.33,20.74,40.77,40.77,0,0,1-12.09-1.67,38.11,38.11,0,0,1-16.42-10.42l10-9.44a23.81,23.81,0,0,0,18.48,7.77,7.57,7.57,0,0,0,7.57-7c0-3.74-4.23-7.18-11.4-9.63l-.3-.1Z"/><path class="cls-1" d="M453,114.26v3.64H384.92v-3.64L418.15,49h4ZM433,104.13,419.82,76l-14.35,28.11Z"/><path class="cls-1" d="M475.36,104.13H501V117.8H461.6V49h13.76Z"/><path class="cls-1" d="M573.37,83.39a35.68,35.68,0,1,1-35.68-35.69A35.74,35.74,0,0,1,573.37,83.39Zm-57.21,0a21.53,21.53,0,1,0,21.53-21.53A21.52,21.52,0,0,0,516.16,83.39Zm12.39,0a9.14,9.14,0,1,0,9.14-9.14A8.83,8.83,0,0,0,528.55,83.39Z"/><path class="cls-1" d="M637.66,117.9,598.93,77.69V117.9H585.17V49h4.32l38,38.53V49H641.3V117.9Z"/><rect class="cls-2" x="8.75" y="7.99" width="674.5" height="156.03"/></svg>